<svg xmlns="http://www.w3.org/2000/svg" viewBox="0 0 42.667 42.667" xml:space="preserve" version="1.1">
    <path fill="#f2571a" fill-opacity="1" fill-rule="nonzero" stroke="none" d="M23 23.023l-.154 2.612h-4.342l-.385-5.838c4.152-.807 5.725-2.422 5.725-4.188 0-1.73-1.42-2.69-3.38-2.69-2.151 0-4.38 1.267-5.227 1.959l-.92-4.803C15.47 9.191 17.738 8 21.233 8c4.15 0 8.263 2.306 8.263 7.224 0 4.341-3.114 6.57-6.495 7.8zm-2.344 11.644a3.426 3.426 0 0 1-3.42-3.42 3.427 3.427 0 0 1 3.42-3.422c1.92 0 3.458 1.539 3.458 3.422 0 1.882-1.537 3.42-3.458 3.42zm.677-32c-10.31 0-18.666 8.356-18.666 18.666S11.023 40 21.333 40 40 31.643 40 21.333c0-10.31-8.357-18.666-18.667-18.666"/>
</svg>
